<?xml version="1.0" encoding="UTF-8" standalone="no"?> <svg width="512" height="512" viewBox="0 0 512 512" fill="none" xmlns="http://www.w3.org/2000/svg">
<path fill-rule="evenodd" clip-rule="evenodd" d="M128 32C74.9807 32 32 74.9807 32 128V384C32 437.019 74.9807 480 128 480H384C437.019 480 480 437.019 480 384V128C480 74.9807 437.019 32 384 32H128ZM220.77 256.001L256.001 166.568L291.233 256.001H220.77ZM341.393 383.332L306.99 296.001H205.013L170.61 383.332C166.561 393.609 154.948 398.658 144.671 394.61C134.394 390.561 129.345 378.948 133.393 368.671L229.95 123.565C239.267 99.9158 272.736 99.9156 282.053 123.565L378.61 368.671C382.658 378.948 377.609 390.561 367.332 394.61C357.055 398.658 345.442 393.609 341.393 383.332Z" fill="black"/>
</svg>
