<?xml version="1.0" encoding="UTF-8"?>
<svg  viewBox="0 0 48 48" version="1.1" xmlns="http://www.w3.org/2000/svg" xmlns:xlink="http://www.w3.org/1999/xlink">
    <!-- Generator: Sketch 49.2 (51160) - http://www.bohemiancoding.com/sketch -->
    <title>Codepen</title>
    <desc>Created with Sketch.</desc>
    <defs></defs>
    <g id="Page-1" stroke="none" stroke-width="1" fill="none" fill-rule="evenodd">
        <g id="Social-Icons---Isolated" transform="translate(-164.000000, -167.000000)" fill="#0B0B0A">
            <path d="M211.982,183.419 C211.9775,183.3875 211.97,183.359 211.9655,183.329 C211.955,183.2705 211.9445,183.212 211.9295,183.1565 C211.9205,183.122 211.907,183.089 211.8965,183.056 C211.88,183.005 211.8635,182.9555 211.844,182.906 C211.8305,182.8715 211.814,182.837 211.7975,182.8055 C211.7765,182.7575 211.754,182.7125 211.727,182.669 C211.709,182.636 211.688,182.6045 211.6685,182.573 C211.6415,182.5295 211.613,182.4875 211.5815,182.447 C211.559,182.417 211.535,182.387 211.511,182.3585 C211.478,182.3195 211.4435,182.282 211.4075,182.246 C211.3805,182.219 211.355,182.1905 211.3265,182.1665 C211.2875,182.132 211.2485,182.099 211.2095,182.0675 C211.178,182.0435 211.148,182.0195 211.1165,181.997 C211.1045,181.9895 211.094,181.979 211.082,181.9715 L189.1445,167.3465 C188.4515,166.8845 187.55,166.8845 186.8555,167.3465 L164.9195,181.9715 C164.9075,181.979 164.897,181.9895 164.885,181.997 C164.852,182.0195 164.822,182.0435 164.792,182.0675 C164.7515,182.099 164.7125,182.132 164.675,182.1665 C164.6465,182.1905 164.6195,182.219 164.5925,182.246 C164.5565,182.282 164.522,182.3195 164.4905,182.3585 C164.465,182.387 164.441,182.417 164.4185,182.447 C164.3885,182.4875 164.36,182.5295 164.333,182.573 C164.312,182.6045 164.2925,182.636 164.273,182.669 C164.2475,182.7125 164.225,182.7575 164.2025,182.8055 C164.1875,182.837 164.171,182.8715 164.1575,182.906 C164.1365,182.9555 164.12,183.005 164.1035,183.056 C164.093,183.089 164.081,183.122 164.072,183.1565 C164.057,183.212 164.0465,183.2705 164.036,183.329 C164.03,183.359 164.0225,183.3875 164.0195,183.419 C164.0075,183.506 164,183.596 164,183.6875 L164,198.3125 C164,198.4025 164.0075,198.4925 164.0195,198.5825 C164.0225,198.611 164.03,198.641 164.036,198.671 C164.0465,198.7295 164.057,198.7865 164.072,198.8435 C164.081,198.878 164.093,198.911 164.1035,198.944 C164.12,198.9935 164.1365,199.0445 164.1575,199.0955 C164.171,199.1285 164.1875,199.1615 164.2025,199.1945 C164.225,199.241 164.2475,199.286 164.273,199.3325 C164.2925,199.364 164.312,199.3955 164.333,199.427 C164.36,199.4705 164.3885,199.511 164.4185,199.5515 C164.441,199.583 164.465,199.613 164.4905,199.6415 C164.522,199.679 164.5565,199.718 164.5925,199.7525 C164.6195,199.781 164.6465,199.808 164.675,199.8335 C164.7125,199.868 164.7515,199.901 164.792,199.9325 C164.822,199.9565 164.852,199.9805 164.885,200.003 C164.897,200.0105 164.9075,200.021 164.9195,200.0285 L186.8555,214.6535 C187.202,214.8845 187.601,215 188,215 C188.399,215 188.798,214.8845 189.1445,214.6535 L211.082,200.0285 C211.094,200.021 211.1045,200.0105 211.1165,200.003 C211.148,199.9805 211.178,199.9565 211.2095,199.9325 C211.2485,199.901 211.2875,199.868 211.3265,199.8335 C211.355,199.808 211.3805,199.781 211.4075,199.7525 C211.4435,199.718 211.478,199.679 211.511,199.6415 C211.535,199.613 211.559,199.583 211.5815,199.5515 C211.613,199.511 211.6415,199.4705 211.6685,199.427 C211.688,199.3955 211.709,199.364 211.727,199.3325 C211.754,199.286 211.7765,199.241 211.7975,199.1945 C211.814,199.1615 211.8305,199.1285 211.844,199.0955 C211.8635,199.0445 211.88,198.9935 211.8965,198.944 C211.907,198.911 211.9205,198.878 211.9295,198.8435 C211.9445,198.7865 211.955,198.7295 211.9655,198.671 C211.97,198.641 211.9775,198.611 211.982,198.5825 C211.994,198.4925 212,198.4025 212,198.3125 L212,183.6875 C212,183.596 211.994,183.506 211.982,183.419 L211.982,183.419 L211.982,183.419 Z M190.0625,172.9175 L206.2235,183.6905 L199.0055,188.519 L190.0625,182.537 L190.0625,172.9175 L190.0625,172.9175 Z M185.9375,172.9175 L185.9375,182.537 L176.996,188.519 L169.7765,183.6905 L185.9375,172.9175 L185.9375,172.9175 Z M168.125,187.5485 L173.2865,191 L168.125,194.4515 L168.125,187.5485 L168.125,187.5485 Z M185.9375,209.0825 L169.7765,198.3095 L176.996,193.4825 L185.9375,199.463 L185.9375,209.0825 L185.9375,209.0825 Z M188,195.8795 L180.7055,191 L188,186.1205 L195.296,191 L188,195.8795 L188,195.8795 Z M190.0625,209.0825 L190.0625,199.463 L199.0055,193.4825 L206.2235,198.3095 L190.0625,209.0825 L190.0625,209.0825 Z M207.875,194.4515 L202.715,191 L207.875,187.5485 L207.875,194.4515 L207.875,194.4515 Z" id="Codepen"></path>
        </g>
    </g>
</svg>